HIERARCHY
ROOT Pelvis
{
	OFFSET 0.000000 0.941512 0.000000
	CHANNELS 6 Xposition Yposition Zposition Zrotation Yrotation Xrotation 
	JOINT Pelvis_L_Hip
	{
		OFFSET 0.000000 0.000000 0.000000
		CHANNELS 3 Zrotation Yrotation Xrotation
		JOINT L_Hip
		{
			OFFSET 0.062321 -0.080322 -0.016990
			CHANNELS 3 Zrotation Yrotation Xrotation
			JOINT L_Knee
			{
				OFFSET 0.093051 -0.381305 -0.029784
				CHANNELS 3 Zrotation Yrotation Xrotation
				JOINT L_Ankle
				{
					OFFSET -0.010371 -0.431000 -0.033614
					CHANNELS 3 Zrotation Yrotation Xrotation
					End Site #name: L_Foot
					{
						OFFSET 0.069299 -0.038670 0.119418
					}
				}
			}
		}
	}
	JOINT Pelvis_R_Hip
	{
		OFFSET 0.000000 0.000000 0.000000
		CHANNELS 3 Zrotation Yrotation Xrotation
		JOINT R_Hip
		{
			OFFSET -0.055334 -0.094904 -0.002373
			CHANNELS 3 Zrotation Yrotation Xrotation
			JOINT R_Knee
			{
				OFFSET -0.064207 -0.384370 -0.019592
				CHANNELS 3 Zrotation Yrotation Xrotation
				JOINT R_Ankle
				{
					OFFSET 0.025418 -0.419734 -0.065953
					CHANNELS 3 Zrotation Yrotation Xrotation
					End Site #name: R_Foot
					{
						OFFSET -0.057233 -0.039888 0.132134
					}
				}
			}
		}
	}
	JOINT Pelvis_Spine1
	{
		OFFSET 0.000000 0.000000 0.000000
		CHANNELS 3 Zrotation Yrotation Xrotation
		JOINT Spine1
		{
			OFFSET -0.005562 0.124093 -0.043360
			CHANNELS 3 Zrotation Yrotation Xrotation
			JOINT Spine2
			{
				OFFSET 0.012244 0.139499 0.029894
				CHANNELS 3 Zrotation Yrotation Xrotation
				JOINT Spine3
				{
					OFFSET -0.002556 0.056561 0.009225
					CHANNELS 3 Zrotation Yrotation Xrotation
					JOINT Spine3_Neck
					{
						OFFSET 0.000000 0.000000 0.000000
						CHANNELS 3 Zrotation Yrotation Xrotation
						JOINT Neck
						{
							OFFSET -0.005205 0.217920 -0.024551
							CHANNELS 3 Zrotation Yrotation Xrotation
							End Site #name: Head
							{
								OFFSET 0.002365 0.091850 0.046637
							}
						}
					}
					JOINT Spine3_L_Collar
					{
						OFFSET 0.000000 0.000000 0.000000
						CHANNELS 3 Zrotation Yrotation Xrotation
						JOINT L_Collar
						{
							OFFSET 0.072225 0.116603 -0.009480
							CHANNELS 3 Zrotation Yrotation Xrotation
							JOINT L_Shoulder
							{
								OFFSET 0.115937 -0.058643 -0.021018
								CHANNELS 3 Zrotation Yrotation Xrotation
								JOINT L_Elbow
								{
									OFFSET 0.021994 -0.254722 -0.024492
									CHANNELS 3 Zrotation Yrotation Xrotation
									End Site #name: L_Wrist
									{
										OFFSET 0.048810 -0.240214 0.103329
									}
								}
							}
						}
					}
					JOINT Spine3_R_Collar
					{
						OFFSET 0.000000 0.000000 0.000000
						CHANNELS 3 Zrotation Yrotation Xrotation
						JOINT R_Collar
						{
							OFFSET -0.073372 0.120704 -0.024611
							CHANNELS 3 Zrotation Yrotation Xrotation
							JOINT R_Shoulder
							{
								OFFSET -0.108089 -0.054969 -0.020504
								CHANNELS 3 Zrotation Yrotation Xrotation
								JOINT R_Elbow
								{
									OFFSET -0.033684 -0.260739 0.009889
									CHANNELS 3 Zrotation Yrotation Xrotation
									End Site #name: R_Wrist
									{
										OFFSET -0.067980 -0.232763 0.118463
									}
								}
							}
						}
					}
				}
			}
		}
	}
}
MOTION
Frames: 11
Frame Time: 0.041667
0.489328 0.958592 -0.014197 5.518072 40.085276 1.995451 0.000000 0.000000 0.000000 -5.732043 2.753969 10.066238 4.660167 -0.588209 5.265072 15.659776 37.280958 9.728121 0.000000 0.000000 0.000000 -5.756093 0.824041 -10.938705 -13.054342 2.818689 6.726696 10.385076 46.482532 -4.771709 0.000000 0.000000 0.000000 18.690306 0.969908 -27.623244 -26.446507 7.090008 21.059911 29.871119 28.206019 -4.945582 0.000000 0.000000 0.000000 -36.196188 12.634387 21.968176 0.000000 0.000000 0.000000 46.199562 1.738905 33.509760 40.391652 2.280525 -24.659265 11.014310 5.337172 8.071040 0.000000 0.000000 0.000000 -64.154486 23.802095 -42.903600 -21.305324 -2.360167 -8.029692 -2.168174 -2.748922 5.825505 
0.487440 0.957805 -0.015552 5.040858 40.278742 1.917286 0.000000 0.000000 0.000000 -6.158943 2.813420 10.054356 6.346875 -0.640394 3.975317 16.264889 38.330892 10.602561 0.000000 0.000000 0.000000 -5.449152 0.881460 -11.246960 -12.877792 2.791030 6.794835 9.678163 45.660691 -5.567629 0.000000 0.000000 0.000000 18.999267 0.955811 -27.752963 -26.296443 7.024946 20.929867 30.061158 28.216569 -4.975797 0.000000 0.000000 0.000000 -35.777521 12.405053 21.819892 0.000000 0.000000 0.000000 46.769017 1.263753 33.480399 40.579681 2.393605 -24.945503 11.363647 5.453082 7.745305 0.000000 0.000000 0.000000 -63.965725 23.907285 -43.056862 -21.543613 -2.393366 -8.877012 -2.501984 -2.674704 5.059637 
0.486868 0.956505 -0.016757 4.849978 40.660378 1.770704 0.000000 0.000000 0.000000 -6.364824 2.906739 10.431763 7.443181 -0.661176 3.056496 16.415299 38.441794 10.650198 0.000000 0.000000 0.000000 -5.501368 0.869994 -11.389821 -12.845657 2.817790 7.206102 7.892823 40.989839 -6.686972 0.000000 0.000000 0.000000 19.183616 0.951943 -28.062983 -26.330438 7.004638 20.974886 30.714142 28.219862 -4.693523 0.000000 0.000000 0.000000 -35.435135 12.150761 21.205738 0.000000 0.000000 0.000000 47.250448 0.852809 33.467068 40.246082 2.506908 -25.489130 12.085078 5.728044 7.599381 0.000000 0.000000 0.000000 -64.346443 23.798960 -43.211681 -21.547048 -2.408720 -9.239157 -3.276102 -2.713706 4.020408 
0.489906 0.955372 -0.016127 5.153725 41.006785 2.052410 0.000000 0.000000 0.000000 -6.734550 3.051051 10.931309 8.014960 -0.617183 2.051931 16.125307 38.265381 10.927411 0.000000 0.000000 0.000000 -5.971078 0.792023 -11.380655 -12.488577 2.775770 7.483283 8.296842 38.614143 -5.043838 0.000000 0.000000 0.000000 19.410330 1.020643 -29.198729 -26.134395 6.895569 20.592539 31.116255 28.265943 -4.098743 0.000000 0.000000 0.000000 -35.388329 12.014033 21.151659 0.000000 0.000000 0.000000 47.553627 0.602976 33.580991 40.610248 3.069978 -26.914461 12.623011 5.928459 7.270992 0.000000 0.000000 0.000000 -64.050105 24.127671 -43.943271 -21.597770 -2.402861 -9.019604 -3.679641 -2.717986 3.409791 
0.493640 0.954903 -0.015253 5.683000 41.186409 2.067473 0.000000 0.000000 0.000000 -7.179831 3.187445 11.294681 7.912642 -0.628365 2.276547 16.745951 38.922211 11.069764 0.000000 0.000000 0.000000 -6.513666 0.673766 -10.757767 -12.646948 2.797759 7.433727 8.483245 38.344771 -4.607003 0.000000 0.000000 0.000000 20.117644 1.023872 -29.843111 -26.496813 6.970900 20.614563 31.434920 28.332648 -4.061932 0.000000 0.000000 0.000000 -35.348464 11.928976 20.142129 0.000000 0.000000 0.000000 47.961929 0.489374 33.727561 40.409697 3.175733 -27.336103 13.470279 6.248483 6.502627 0.000000 0.000000 0.000000 -64.778451 23.931623 -43.916511 -20.853126 -2.311645 -10.040402 -4.117315 -2.822038 3.105387 
0.498107 0.954881 -0.014236 6.428157 41.346150 2.059529 0.000000 0.000000 0.000000 -7.606226 3.351095 11.812769 7.312916 -0.607961 2.684771 17.609188 40.022522 11.642846 0.000000 0.000000 0.000000 -7.364014 0.505780 -10.053950 -12.766893 2.839886 7.662856 8.384429 38.307305 -4.757361 0.000000 0.000000 0.000000 21.079415 1.028320 -30.636189 -27.002273 7.055518 20.455771 31.890244 28.469935 -3.842453 0.000000 0.000000 0.000000 -34.935291 11.658542 18.792046 0.000000 0.000000 0.000000 48.097964 0.893393 34.268299 40.822370 3.814622 -28.825439 14.033380 6.471250 6.055010 0.000000 0.000000 0.000000 -65.100012 23.843615 -43.917163 -20.954221 -2.332539 -10.666237 -4.417808 -2.796145 2.532358 
0.503825 0.954346 -0.014241 7.126342 41.464484 1.942932 0.000000 0.000000 0.000000 -8.111123 3.564561 12.523279 6.909576 -0.579302 2.800609 17.840001 40.445932 12.066938 0.000000 0.000000 0.000000 -8.078634 0.347918 -9.061192 -13.015182 2.867784 7.479669 8.318050 38.348126 -4.887786 0.000000 0.000000 0.000000 22.048676 1.056194 -31.606306 -26.871462 7.028690 20.309982 32.425078 28.496981 -3.185725 0.000000 0.000000 0.000000 -34.504074 11.354187 17.152013 0.000000 0.000000 0.000000 48.308229 1.018155 34.563527 40.237931 4.161921 -30.113153 15.068197 6.899690 5.312305 0.000000 0.000000 0.000000 -65.446592 23.621656 -43.830083 -21.201239 -2.377191 -11.436997 -5.409987 -3.042106 1.852074 
0.512017 0.954497 -0.014130 8.028314 41.556384 2.304456 0.000000 0.000000 0.000000 -9.189079 3.823146 12.970370 6.684367 -0.581149 3.055450 18.226934 40.682940 11.822516 0.000000 0.000000 0.000000 -9.076480 0.166780 -8.302883 -13.473532 2.949621 7.487683 7.737483 38.276912 -5.862038 0.000000 0.000000 0.000000 23.505593 1.052988 -32.445228 -26.750368 6.919217 19.561622 32.394053 28.615758 -4.121366 0.000000 0.000000 0.000000 -32.459092 10.534251 14.914227 0.000000 0.000000 0.000000 47.781333 1.099878 34.159980 42.217292 4.616224 -30.034072 15.338440 7.007432 4.326020 0.000000 0.000000 0.000000 -65.149728 23.930593 -43.868832 -22.045110 -2.505921 -12.216012 -6.057888 -3.177345 1.287665 
0.519497 0.955020 -0.015604 9.276357 41.516374 2.629424 0.000000 0.000000 0.000000 -10.491154 4.129451 13.463024 6.299062 -0.590236 3.547579 18.670828 40.927751 11.418054 0.000000 0.000000 0.000000 -10.242446 -0.036905 -7.571080 -14.063615 3.068304 7.605054 7.317398 38.319494 -6.582325 0.000000 0.000000 0.000000 24.683665 1.067205 -33.177228 -26.386445 6.808240 19.050224 32.728198 28.710157 -4.476780 0.000000 0.000000 0.000000 -30.336281 9.712356 12.013407 0.000000 0.000000 0.000000 47.772342 1.069663 34.010076 42.638702 4.908204 -30.495510 16.786758 7.644317 3.911041 0.000000 0.000000 0.000000 -65.467174 23.793293 -43.546382 -23.287761 -2.729316 -13.291138 -6.982736 -3.424729 0.696698 
0.527354 0.955000 -0.017614 10.691265 41.439621 3.005426 0.000000 0.000000 0.000000 -11.725856 4.466225 14.154943 5.511676 -0.549469 3.932876 18.840400 40.771049 10.642616 0.000000 0.000000 0.000000 -11.614086 -0.270534 -6.778446 -14.669668 3.184058 7.647586 6.969599 38.539655 -7.233688 0.000000 0.000000 0.000000 25.793308 1.086057 -33.851503 -25.844147 6.675718 18.608289 32.866650 28.735721 -5.000888 0.000000 0.000000 0.000000 -27.559327 8.748847 8.363035 0.000000 0.000000 0.000000 48.033633 0.848275 33.804051 43.479250 5.025438 -30.263741 18.708356 8.515616 3.610112 0.000000 0.000000 0.000000 -65.768827 23.775938 -43.343901 -25.100625 -3.056082 -14.020990 -8.401637 -3.819559 -0.177068 
0.535412 0.959193 -0.018754 12.694339 41.466887 3.158307 0.000000 0.000000 0.000000 -13.765560 4.995917 15.216433 4.876450 -0.574160 4.887630 19.873934 41.083021 9.077287 0.000000 0.000000 0.000000 -13.426834 -0.599112 -5.140637 -15.551208 3.369006 7.884152 5.666488 38.946927 -9.589946 0.000000 0.000000 0.000000 26.734725 1.105216 -34.561584 -24.302073 6.323879 18.028704 32.657920 28.618645 -4.941987 0.000000 0.000000 0.000000 -24.785144 7.801856 3.939940 0.000000 0.000000 0.000000 49.945206 -0.422861 33.766130 42.224443 4.887665 -30.760609 20.700399 9.450639 3.908829 0.000000 0.000000 0.000000 -67.123486 23.228036 -43.035863 -26.120400 -3.272657 -14.773124 -10.433384 -4.583767 -0.539501 
